<svg xmlns="http://www.w3.org/2000/svg" width="48" height="48" fill="none"><path fill="#7B5AE2" d="M40.981 6.018h-8.527c-1.804 0-3.551.684-4.823 1.926l-3.096 2.988a3.1 3.1 0 0 1-2.127.846h-7.482c-2.867 0-5.184 2.196-5.184 4.914v1.692h5.507c1.804 0 3.551-.684 4.824-1.926l3.095-2.988a3.1 3.1 0 0 1 2.127-.846h10.691C38.76 12.624 41 10.5 41 7.872V6zm0 11.808h-8.28c-1.804 0-3.551.684-4.823 1.926l-3.096 2.988a3.1 3.1 0 0 1-2.127.846H8.185C5.316 23.586 3 25.782 3 28.5v1.692h12.553c1.766 0 3.475-.684 4.71-1.872l3.133-3.024a3.1 3.1 0 0 1 2.127-.846h10.445c2.772 0 5.013-2.124 5.013-4.752zm0 11.808h-8.527c-1.804 0-3.551.684-4.823 1.926l-3.096 2.988a3.1 3.1 0 0 1-2.127.846h-7.482c-2.867 0-5.184 2.196-5.184 4.914V42h5.507c1.804 0 3.551-.684 4.824-1.926l3.095-2.988a3.1 3.1 0 0 1 2.127-.846h10.691c2.773 0 5.014-2.124 5.014-4.752v-1.872z"/></svg>